<svg width="71" height="74" viewBox="0 0 71 74" fill="none" xmlns="http://www.w3.org/2000/svg">
<g filter="url(#filter0_d_43_19)">
<g filter="url(#filter1_f_43_19)">
<path d="M10.5451 20.0894L11.6297 19.0533L11.4778 18.8942L11.2865 18.7854L10.5451 20.0894ZM33.3976 44.0139L32.3129 45.05L34.8952 47.7535L34.8976 44.0148L33.3976 44.0139ZM33.412 21V19.5H31.9129L31.912 20.9991L33.412 21ZM8.5 14C8.5 10.9624 10.9624 8.5 14 8.5V5.5C9.30558 5.5 5.5 9.30558 5.5 14H8.5ZM11.2865 18.7854C9.61912 17.8374 8.5 16.0484 8.5 14H5.5C5.5 17.1707 7.23674 19.9338 9.80363 21.3933L11.2865 18.7854ZM34.4822 42.9778L11.6297 19.0533L9.46037 21.1254L32.3129 45.05L34.4822 42.9778ZM31.912 20.9991L31.8976 44.013L34.8976 44.0148L34.912 21.0009L31.912 20.9991ZM52 19.5H33.412V22.5H52V19.5ZM57.5 14C57.5 17.0376 55.0376 19.5 52 19.5V22.5C56.6944 22.5 60.5 18.6944 60.5 14H57.5ZM52 8.5C55.0376 8.5 57.5 10.9624 57.5 14H60.5C60.5 9.30558 56.6944 5.5 52 5.5V8.5ZM14 8.5H52V5.5H14V8.5Z" fill="#B7252D"/>
</g>
<g filter="url(#filter2_f_43_19)">
<path d="M60.4549 50.9246L59.3703 51.9606L59.5222 52.1197L59.7135 52.2285L60.4549 50.9246ZM37.6024 27L38.6871 25.9639L36.1048 23.2605L36.1024 26.9991L37.6024 27ZM37.588 50.0139V51.5139H39.0871L39.088 50.0149L37.588 50.0139ZM62.5 57.0139C62.5 60.0515 60.0376 62.5139 57 62.5139V65.5139C61.6944 65.5139 65.5 61.7083 65.5 57.0139H62.5ZM59.7135 52.2285C61.3809 53.1766 62.5 54.9655 62.5 57.0139H65.5C65.5 53.8433 63.7633 51.0801 61.1964 49.6206L59.7135 52.2285ZM36.5178 28.0361L59.3703 51.9606L61.5396 49.8885L38.6871 25.9639L36.5178 28.0361ZM39.088 50.0149L39.1024 27.001L36.1024 26.9991L36.088 50.013L39.088 50.0149ZM19 51.5139L37.588 51.5139V48.5139L19 48.5139V51.5139ZM13.5 57.0139C13.5 53.9763 15.9624 51.5139 19 51.5139V48.5139C14.3056 48.5139 10.5 52.3195 10.5 57.0139H13.5ZM19 62.5139C15.9624 62.5139 13.5 60.0515 13.5 57.0139H10.5C10.5 61.7083 14.3056 65.5139 19 65.5139V62.5139ZM57 62.5139L19 62.5139V65.5139H57V62.5139Z" fill="#B7252D"/>
</g>
</g>
<path fill-rule="evenodd" clip-rule="evenodd" d="M14 7C10.134 7 7 10.134 7 14C7 16.6095 8.42793 18.8856 10.5451 20.0894L33.3976 44.0139L33.412 21H52C55.866 21 59 17.866 59 14C59 10.134 55.866 7 52 7H14Z" fill="#0D1B28"/>
<path d="M10.5451 20.0894L11.6297 19.0533L11.4778 18.8942L11.2865 18.7854L10.5451 20.0894ZM33.3976 44.0139L32.3129 45.05L34.8952 47.7535L34.8976 44.0148L33.3976 44.0139ZM33.412 21V19.5H31.9129L31.912 20.9991L33.412 21ZM8.5 14C8.5 10.9624 10.9624 8.5 14 8.5V5.5C9.30558 5.5 5.5 9.30558 5.5 14H8.5ZM11.2865 18.7854C9.61912 17.8374 8.5 16.0484 8.5 14H5.5C5.5 17.1707 7.23674 19.9338 9.80363 21.3933L11.2865 18.7854ZM34.4822 42.9778L11.6297 19.0533L9.46037 21.1254L32.3129 45.05L34.4822 42.9778ZM31.912 20.9991L31.8976 44.013L34.8976 44.0148L34.912 21.0009L31.912 20.9991ZM52 19.5H33.412V22.5H52V19.5ZM57.5 14C57.5 17.0376 55.0376 19.5 52 19.5V22.5C56.6944 22.5 60.5 18.6944 60.5 14H57.5ZM52 8.5C55.0376 8.5 57.5 10.9624 57.5 14H60.5C60.5 9.30558 56.6944 5.5 52 5.5V8.5ZM14 8.5H52V5.5H14V8.5Z" fill="#B7252D"/>
<g filter="url(#filter3_b_43_19)">
<path fill-rule="evenodd" clip-rule="evenodd" d="M57 64.0139C60.866 64.0139 64 60.8799 64 57.0139C64 54.4044 62.5721 52.1283 60.4549 50.9246L37.6024 27L37.588 50.0139L19 50.0139C15.134 50.0139 12 53.1479 12 57.0139C12 60.8799 15.134 64.0139 19 64.0139L57 64.0139Z" fill="#0D1B28"/>
<path d="M57 64.0139V62.5139V64.0139ZM60.4549 50.9246L59.3703 51.9606L59.5222 52.1197L59.7135 52.2285L60.4549 50.9246ZM37.6024 27L38.6871 25.9639L36.1048 23.2605L36.1024 26.9991L37.6024 27ZM37.588 50.0139V51.5139H39.0871L39.088 50.0149L37.588 50.0139ZM19 64.0139V65.5139V64.0139ZM62.5 57.0139C62.5 60.0515 60.0376 62.5139 57 62.5139V65.5139C61.6944 65.5139 65.5 61.7083 65.5 57.0139H62.5ZM59.7135 52.2285C61.3809 53.1766 62.5 54.9655 62.5 57.0139H65.5C65.5 53.8433 63.7633 51.0801 61.1964 49.6206L59.7135 52.2285ZM36.5178 28.0361L59.3703 51.9606L61.5396 49.8885L38.6871 25.9639L36.5178 28.0361ZM39.088 50.0149L39.1024 27.001L36.1024 26.9991L36.088 50.013L39.088 50.0149ZM19 51.5139L37.588 51.5139V48.5139L19 48.5139V51.5139ZM13.5 57.0139C13.5 53.9763 15.9624 51.5139 19 51.5139V48.5139C14.3056 48.5139 10.5 52.3195 10.5 57.0139H13.5ZM19 62.5139C15.9624 62.5139 13.5 60.0515 13.5 57.0139H10.5C10.5 61.7083 14.3056 65.5139 19 65.5139V62.5139ZM57 62.5139L19 62.5139V65.5139L57 65.5139V62.5139Z" fill="#B7252D"/>
</g>
<defs>
<filter id="filter0_d_43_19" x="1.5" y="5.5" width="68" height="68.0139" filterUnits="userSpaceOnUse" color-interpolation-filters="sRGB">
<feFlood flood-opacity="0" result="BackgroundImageFix"/>
<feColorMatrix in="SourceAlpha" type="matrix" values="0 0 0 0 0 0 0 0 0 0 0 0 0 0 0 0 0 0 127 0" result="hardAlpha"/>
<feOffset dy="4"/>
<feGaussianBlur stdDeviation="2"/>
<feComposite in2="hardAlpha" operator="out"/>
<feColorMatrix type="matrix" values="0 0 0 0 0.655 0 0 0 0 0.532733 0 0 0 0 0.532733 0 0 0 0.25 0"/>
<feBlend mode="normal" in2="BackgroundImageFix" result="effect1_dropShadow_43_19"/>
<feBlend mode="normal" in="SourceGraphic" in2="effect1_dropShadow_43_19" result="shape"/>
</filter>
<filter id="filter1_f_43_19" x="0.4" y="0.4" width="65.2" height="52.4534" filterUnits="userSpaceOnUse" color-interpolation-filters="sRGB">
<feFlood flood-opacity="0" result="BackgroundImageFix"/>
<feBlend mode="normal" in="SourceGraphic" in2="BackgroundImageFix" result="shape"/>
<feGaussianBlur stdDeviation="2.55" result="effect1_foregroundBlur_43_19"/>
</filter>
<filter id="filter2_f_43_19" x="5.4" y="18.1605" width="65.2" height="52.4534" filterUnits="userSpaceOnUse" color-interpolation-filters="sRGB">
<feFlood flood-opacity="0" result="BackgroundImageFix"/>
<feBlend mode="normal" in="SourceGraphic" in2="BackgroundImageFix" result="shape"/>
<feGaussianBlur stdDeviation="2.55" result="effect1_foregroundBlur_43_19"/>
</filter>
<filter id="filter3_b_43_19" x="6.5" y="19.2605" width="63" height="50.2534" filterUnits="userSpaceOnUse" color-interpolation-filters="sRGB">
<feFlood flood-opacity="0" result="BackgroundImageFix"/>
<feGaussianBlur in="BackgroundImageFix" stdDeviation="2"/>
<feComposite in2="SourceAlpha" operator="in" result="effect1_backgroundBlur_43_19"/>
<feBlend mode="normal" in="SourceGraphic" in2="effect1_backgroundBlur_43_19" result="shape"/>
</filter>
</defs>
</svg>
